<svg width="713" height="758" viewBox="0 0 713 758" fill="none" xmlns="http://www.w3.org/2000/svg">
<path d="M0.024328 0.211914C4.03324 13.2993 38.2145 142.751 50.6632 191.828C70.2858 269.286 78.0223 324.694 75.7014 371.282C74.2244 402.293 70.5671 423.347 61.9866 449.949C59.103 458.982 58.1184 463.107 58.1184 466.237C58.1184 475.27 62.057 483.663 72.1848 496.181C73.5211 497.817 97.2932 520.364 124.934 546.255C167.766 586.441 333.256 741.072 344.017 750.958C350.417 756.933 352.457 758 357.31 758C360.897 758 362.233 757.644 364.835 755.937C367.297 754.301 601.221 538.075 633.573 507.49C647.921 493.976 655.517 482.667 657.345 472.14C658.26 466.806 657.978 464.387 654.813 453.576C638.074 395.821 637.512 331.451 653.125 252.286C658.682 223.907 664.519 200.435 680.906 140.261C696.872 81.4391 704.749 48.7206 710.094 19.2029C711.29 12.4458 712.204 5.47534 712.063 3.69714L711.852 0.49646L697.435 13.7261C640.044 66.5735 601.854 99.292 564.648 127.672C504.233 173.691 450.64 204.631 391.632 227.534L381.996 231.304H371.095C361.108 231.304 359.139 231.091 347.674 228.601C287.892 215.656 229.869 185.854 160.1 132.153C140.125 116.789 118.604 99.0786 64.0966 53.2016C35.1199 28.7339 8.67514 6.54224 5.43988 3.83942C1.92329 0.852051 -0.256999 -0.570435 0.024328 0.211914ZM77.0377 87.9116C98.9109 106.191 133.444 134.927 153.77 151.784C191.889 183.435 193.859 185.285 193.859 190.192C193.859 191.402 193.085 193.464 192.171 194.887C189.991 198.088 96.0272 306.485 95.6756 306.13C95.3943 305.845 96.2382 309.544 62.268 166.792C47.639 105.053 35.6122 54.4108 35.6122 54.1974C35.6122 53.415 36.8782 54.4819 77.0377 87.9116ZM675.632 77.8116C672.607 90.6856 659.455 147.089 646.444 203.209C633.362 259.328 622.461 305.561 622.179 305.845C621.546 306.627 530.467 201.573 527.302 196.38C525.473 193.393 524.77 191.473 524.559 188.414C524.348 184.716 524.489 184.218 526.317 182.511C527.372 181.444 544.603 167.218 564.507 150.859C602.065 120.061 640.677 88.0539 666.067 66.858C674.084 60.101 680.766 54.553 680.906 54.553C680.977 54.553 678.586 65.0087 675.632 77.8116ZM235.636 205.342C243.443 209.397 344.087 251.077 351.754 253.424C357.029 255.06 359.42 255.345 366.172 255.416C373.135 255.416 375.034 255.131 379.535 253.567C384.036 252.002 478.351 209.183 484.892 205.769C486.158 205.129 487.142 204.773 487.142 204.916C487.142 205.414 357.873 385.365 356.818 386.432C356.185 387.072 339.797 364.738 289.862 295.176C253.5 244.534 223.609 202.711 223.468 202.355C222.906 200.719 230.22 202.569 235.636 205.342ZM547.135 248.161C599.462 307.196 598.267 305.774 606.284 320.213C623.234 350.94 632.096 396.461 632.307 453.932C632.378 476.408 632.167 477.973 627.103 485.014C623.867 489.637 626.751 486.864 486.72 617.595C425.954 674.283 374.33 722.01 371.939 723.717L367.578 726.775V566.099V405.352L439.176 306.77C478.492 252.571 510.915 208.188 511.196 208.188C511.407 208.188 527.583 226.183 547.135 248.161ZM273.967 308.05L344.369 405.423V565.388V725.424L342.681 724.072C341.767 723.361 304.842 688.722 260.604 647.042C216.365 605.361 160.1 552.443 135.624 529.398C92.2293 488.642 86.3215 482.596 83.4379 475.981C81.0466 470.504 81.1169 468.442 85.1961 436.79C87.3764 420.004 90.4007 396.532 91.8777 384.583C93.425 372.633 95.3943 359.546 96.1679 355.421C99.8955 336.572 106.929 322.275 120.503 305.987C123.105 302.858 141.673 281.591 161.858 258.688C181.973 235.785 199.556 215.514 200.822 213.664C202.088 211.744 203.213 210.321 203.354 210.464C203.494 210.606 235.214 254.491 273.967 308.05Z" fill="white"/>
</svg>
